<svg xmlns="http://www.w3.org/2000/svg" width="48" height="48" fill="#f66565" fill-rule="evenodd" xmlns:v="https://vecta.io/nano"><path opacity=".3" d="M12 4.12h24c1.105 0 2 .873 2 1.95v17.552c0 1.077-.895 1.95-2 1.95H12c-1.105 0-2-.873-2-1.95V6.07c0-1.077.895-1.95 2-1.95zm3 5.851c-.552 0-1 .437-1 .975s.448.975 1 .975h12c.552 0 1-.437 1-.975s-.448-.975-1-.975H15zm0 3.901c-.552 0-1 .437-1 .975s.448.975 1 .975h6c.552 0 1-.436 1-.975s-.448-.975-1-.975h-6z"/><path d="M7.585 13.038L24 24.598l16.414-11.56c.448-.315 1.073-.217 1.396.22a.96.96 0 0 1 .189.571v19.546c0 2.154-1.791 3.901-4 3.901H10c-2.209 0-4-1.746-4-3.901V13.828c0-.539.448-.975 1-.975.21 0 .415.065.585.185z"/></svg>